<?xml version="1.0" encoding="utf-8"?>
<!-- Generator: Adobe Illustrator 15.1.0, SVG Export Plug-In . SVG Version: 6.00 Build 0)  -->
<!DOCTYPE svg PUBLIC "-//W3C//DTD SVG 1.1//EN" "http://www.w3.org/Graphics/SVG/1.1/DTD/svg11.dtd">
<svg version="1.1" xmlns="http://www.w3.org/2000/svg" xmlns:xlink="http://www.w3.org/1999/xlink" x="0px" y="0px"
	 width="595.275px" height="841.89px" viewBox="0 0 595.275 841.89" enable-background="new 0 0 595.275 841.89"
	 xml:space="preserve">
<g id="Layer_1">
	<path fill="#47C9BC" d="M541.483,341.117h14.108c7.009,0,12.69,5.682,12.69,12.691v95.715c0,7.01-5.682,12.691-12.69,12.691
		h-14.108c-7.009,0-12.69-5.682-12.69-12.691v-95.715C528.793,346.798,534.475,341.117,541.483,341.117z"/>
	<rect x="51.248" y="296" fill="#3A797C" width="488.352" height="335.079"/>
	<path fill="#47C9BC" d="M36.51,341.117h12.469c7.461,0,13.51,6.049,13.51,13.51v94.078c0,7.461-6.049,13.51-13.51,13.51H36.51
		c-7.461,0-13.51-6.049-13.51-13.51v-94.078C23,347.166,29.049,341.117,36.51,341.117z"/>
	<rect x="51.248" y="296.014" fill="#17A398" width="244.176" height="335.074"/>
	<path fill="#1C241F" d="M172.835,379.934h9.964c17.614,0,31.892,14.279,31.892,31.893l0,0c0,17.615-14.278,31.892-31.892,31.892
		h-9.964c-17.614,0-31.892-14.277-31.892-31.892l0,0C140.943,394.212,155.222,379.934,172.835,379.934z"/>
	<path fill="#1C241F" d="M406.052,375.943h9.964c17.613,0,31.892,14.278,31.892,31.892v0.001c0,17.614-14.278,31.892-31.892,31.892
		h-9.964c-17.613,0-31.893-14.278-31.893-31.892v-0.001C374.159,390.222,388.438,375.943,406.052,375.943z"/>
	<path fill="#1C241F" d="M242.327,505.231h105.641c22.018,0,39.866,17.849,39.866,39.864v0.004
		c0,22.018-17.849,39.866-39.866,39.866H242.327c-22.017,0-39.866-17.849-39.866-39.866v-0.004
		C202.461,523.08,220.311,505.231,242.327,505.231z"/>
	<rect x="295.311" y="496.791" fill="#3A797C" width="100.35" height="48.112"/>
	<rect x="194.997" y="502.3" fill="#17A398" width="100.35" height="42.615"/>
	<rect x="278.708" y="152.466" fill="#17A398" width="16.912" height="146.931"/>
	<rect x="295.409" y="152.536" fill="#3A797C" width="16.912" height="146.931"/>
	<ellipse fill="#3A797C" cx="296.379" cy="149.787" rx="52.323" ry="47.091"/>
	<ellipse fill="#17A398" cx="292.911" cy="149.187" rx="40.173" ry="38.591"/>
	<ellipse fill="#3A797C" cx="300.188" cy="149.822" rx="38.591" ry="41.754"/>
	<rect x="225.268" y="588.39" fill="#17A398" width="72.395" height="121.676"/>
	<rect x="295.451" y="588.39" fill="#3A797C" width="72.395" height="121.676"/>
	<path fill="#3A797C" d="M553.071,352.098L553.071,352.098c4.539,0,8.219,4.639,8.219,10.361v75.985c0,5.724-3.68,10.36-8.219,10.36
		l0,0c-4.539,0-8.219-4.637-8.219-10.36v-75.985C544.853,356.736,548.532,352.098,553.071,352.098z"/>
	<path fill="#3A797C" d="M38,352.098L38,352.098c4.539,0,8.219,4.639,8.219,10.361v75.985c0,5.724-3.68,10.36-8.219,10.36l0,0
		c-4.539,0-8.219-4.637-8.219-10.36v-75.985C29.781,356.736,33.461,352.098,38,352.098z"/>
	<ellipse fill="#333333" fill-opacity="0.6884" cx="415.091" cy="413.574" rx="21.245" ry="17.177"/>
	<ellipse fill="#333333" fill-opacity="0.6884" cx="294.335" cy="564.552" rx="69.613" ry="14.465"/>
	<ellipse fill="#333333" fill-opacity="0.6884" cx="183.891" cy="413.574" rx="21.245" ry="17.177"/>
	<path fill="#37ABC8" d="M-349.983,247.256h16.178c8.037,0,14.553,6.515,14.553,14.553v109.759c0,8.037-6.516,14.553-14.553,14.553
		h-16.178c-8.037,0-14.553-6.516-14.553-14.553V261.809C-364.536,253.771-358.021,247.256-349.983,247.256z"/>
	<rect x="-912.143" y="195.52" fill="#247083" width="560" height="384.239"/>
	<path fill="#37ABC8" d="M-929.043,247.256h14.299c8.556,0,15.492,6.936,15.492,15.492v107.88c0,8.557-6.936,15.492-15.492,15.492
		h-14.299c-8.556,0-15.492-6.936-15.492-15.492v-107.88C-944.535,254.192-937.599,247.256-929.043,247.256z"/>
	<rect x="-912.143" y="195.536" fill="#2C89A0" width="280" height="384.233"/>
	<path fill="#1C241F" d="M-772.717,291.768h11.426c20.198,0,36.571,16.374,36.571,36.572l0,0c0,20.199-16.373,36.572-36.571,36.572
		h-11.426c-20.198,0-36.571-16.373-36.571-36.572l0,0C-809.288,308.142-792.915,291.768-772.717,291.768z"/>
	<path fill="#1C241F" d="M-505.285,287.192h11.426c20.198,0,36.571,16.373,36.571,36.571v0.001
		c0,20.198-16.373,36.571-36.571,36.571h-11.426c-20.197,0-36.571-16.374-36.571-36.571v-0.001
		C-541.856,303.565-525.482,287.192-505.285,287.192z"/>
	<path fill="#1C241F" d="M-693.03,435.449h121.139c25.248,0,45.715,20.467,45.715,45.713v0.004
		c0,25.248-20.467,45.715-45.715,45.715H-693.03c-25.247,0-45.714-20.467-45.714-45.715v-0.004
		C-738.744,455.916-718.277,435.449-693.03,435.449z"/>
	<rect x="-632.272" y="425.769" fill="#247083" width="115.072" height="55.172"/>
	<rect x="-747.304" y="432.087" fill="#2C89A0" width="115.073" height="48.867"/>
	<rect x="-651.312" y="30.928" fill="#2C89A0" width="19.393" height="168.488"/>
	<rect x="-632.16" y="31.008" fill="#237183" width="19.394" height="168.488"/>
	<ellipse fill="#237183" cx="-631.048" cy="27.856" rx="60" ry="54"/>
	<ellipse fill="#2C89A0" cx="-635.024" cy="27.168" rx="46.066" ry="44.253"/>
	<ellipse fill="#247083" cx="-626.68" cy="27.896" rx="44.253" ry="47.88"/>
	<rect x="-712.592" y="530.808" fill="#2C89A0" width="83.016" height="139.527"/>
	<rect x="-632.112" y="530.808" fill="#247083" width="83.017" height="139.527"/>
	<path fill="#216778" fill-opacity="0.6884" d="M-336.695,259.848L-336.695,259.848c5.205,0,9.425,5.319,9.425,11.881v87.133
		c0,6.563-4.22,11.881-9.425,11.881l0,0c-5.205,0-9.425-5.318-9.425-11.881v-87.133C-346.12,265.167-341.9,259.848-336.695,259.848z
		"/>
	<path fill="#216778" fill-opacity="0.6884" d="M-927.334,259.848L-927.334,259.848c5.205,0,9.425,5.319,9.425,11.881v87.133
		c0,6.563-4.22,11.881-9.425,11.881l0,0c-5.205,0-9.425-5.318-9.425-11.881v-87.133
		C-936.759,265.167-932.54,259.848-927.334,259.848z"/>
	<ellipse fill="#333333" fill-opacity="0.6884" cx="-494.92" cy="330.344" rx="24.362" ry="19.698"/>
	<ellipse fill="#333333" fill-opacity="0.6884" cx="-633.392" cy="503.472" rx="79.826" ry="16.588"/>
	<ellipse fill="#333333" fill-opacity="0.6884" cx="-760.04" cy="330.344" rx="24.362" ry="19.698"/>
	<path fill="#FFA488" d="M1391.483,368.455h14.108c7.009,0,12.69,5.682,12.69,12.691v95.715c0,7.01-5.682,12.691-12.69,12.691
		h-14.108c-7.009,0-12.69-5.682-12.69-12.691v-95.715C1378.793,374.136,1384.475,368.455,1391.483,368.455z"/>
	<rect x="901.247" y="323.337" fill="#AF7B6B" width="488.353" height="335.079"/>
	<path fill="#FFA488" d="M886.511,368.455h12.469c7.461,0,13.51,6.049,13.51,13.51v94.078c0,7.461-6.049,13.51-13.51,13.51h-12.469
		c-7.462,0-13.511-6.049-13.511-13.51v-94.078C873,374.503,879.049,368.455,886.511,368.455z"/>
	<rect x="901.247" y="323.352" fill="#F38D68" width="244.176" height="335.074"/>
	<path fill="#1C241F" d="M1022.835,407.271h9.965c17.613,0,31.892,14.279,31.892,31.892l0,0c0,17.615-14.278,31.893-31.892,31.893
		h-9.965c-17.613,0-31.892-14.277-31.892-31.893l0,0C990.943,421.55,1005.222,407.271,1022.835,407.271z"/>
	<path fill="#1C241F" d="M1256.052,403.281h9.964c17.613,0,31.892,14.278,31.892,31.892l0,0c0,17.614-14.278,31.893-31.892,31.893
		h-9.964c-17.613,0-31.893-14.278-31.893-31.893l0,0C1224.159,417.56,1238.438,403.281,1256.052,403.281z"/>
	<path fill="#1C241F" d="M1092.327,532.569h105.641c22.018,0,39.866,17.849,39.866,39.864v0.004
		c0,22.018-17.849,39.866-39.866,39.866h-105.641c-22.017,0-39.865-17.849-39.865-39.866v-0.004
		C1052.462,550.417,1070.311,532.569,1092.327,532.569z"/>
	<rect x="1145.312" y="524.128" fill="#AF7B6B" width="100.35" height="48.112"/>
	<rect x="1044.997" y="529.638" fill="#F38D68" width="100.35" height="42.615"/>
	<rect x="1128.708" y="179.804" fill="#F38D68" width="16.912" height="146.931"/>
	<rect x="1145.409" y="179.874" fill="#AF7B6B" width="16.912" height="146.931"/>
	<ellipse fill="#AF7B6B" cx="1146.379" cy="177.125" rx="52.323" ry="47.091"/>
	<ellipse fill="#F38D68" cx="1142.911" cy="176.525" rx="40.173" ry="38.591"/>
	<ellipse fill="#AF7B6B" cx="1150.188" cy="177.16" rx="38.591" ry="41.754"/>
	<rect x="1075.269" y="615.728" fill="#F38D68" width="72.395" height="121.676"/>
	<rect x="1145.45" y="615.728" fill="#AF7B6B" width="72.396" height="121.676"/>
	<path fill="#AF7B6B" d="M1403.071,379.436L1403.071,379.436c4.539,0,8.219,4.639,8.219,10.361v75.985
		c0,5.724-3.68,10.36-8.219,10.36l0,0c-4.539,0-8.219-4.637-8.219-10.36v-75.985
		C1394.853,384.074,1398.532,379.436,1403.071,379.436z"/>
	<path fill="#AF7B6B" d="M888,379.436L888,379.436c4.539,0,8.219,4.639,8.219,10.361v75.985c0,5.724-3.68,10.36-8.219,10.36l0,0
		c-4.539,0-8.219-4.637-8.219-10.36v-75.985C879.781,384.074,883.461,379.436,888,379.436z"/>
	<ellipse fill="#333333" fill-opacity="0.6884" cx="1265.091" cy="440.912" rx="21.245" ry="17.178"/>
	<ellipse fill="#333333" fill-opacity="0.6884" cx="1144.335" cy="591.89" rx="69.613" ry="14.465"/>
	<ellipse fill="#333333" fill-opacity="0.6884" cx="1033.891" cy="440.912" rx="21.245" ry="17.178"/>
	<path fill="#37ABC8" d="M1047.276,1356.776h14.108c7.009,0,12.69,5.682,12.69,12.69v95.716c0,7.01-5.682,12.691-12.69,12.691
		h-14.108c-7.009,0-12.69-5.682-12.69-12.691v-95.716C1034.586,1362.458,1040.268,1356.776,1047.276,1356.776z"/>
	<rect x="557.04" y="1311.659" fill="#247083" width="488.353" height="335.079"/>
	<path fill="#37ABC8" d="M542.304,1356.776h12.469c7.461,0,13.51,6.049,13.51,13.51v94.078c0,7.461-6.049,13.51-13.51,13.51h-12.469
		c-7.462,0-13.511-6.049-13.511-13.51v-94.078C528.793,1362.825,534.842,1356.776,542.304,1356.776z"/>
	<rect x="557.04" y="1311.673" fill="#2C89A0" width="244.176" height="335.073"/>
	<path fill="#1C241F" d="M678.628,1395.593h9.965c17.613,0,31.892,14.278,31.892,31.893l0,0c0,17.614-14.278,31.892-31.892,31.892
		h-9.965c-17.613,0-31.892-14.277-31.892-31.892l0,0C646.736,1409.872,661.015,1395.593,678.628,1395.593z"/>
	<path fill="#1C241F" d="M911.845,1391.603h9.964c17.613,0,31.892,14.277,31.892,31.891v0.002c0,17.613-14.278,31.892-31.892,31.892
		h-9.964c-17.613,0-31.893-14.278-31.893-31.892v-0.002C879.952,1405.88,894.231,1391.603,911.845,1391.603z"/>
	<path fill="#1C241F" d="M748.12,1520.89h105.641c22.018,0,39.866,17.849,39.866,39.864v0.004c0,22.018-17.849,39.866-39.866,39.866
		H748.12c-22.017,0-39.865-17.849-39.865-39.866v-0.004C708.255,1538.739,726.104,1520.89,748.12,1520.89z"/>
	<rect x="801.104" y="1512.45" fill="#247083" width="100.35" height="48.112"/>
	<rect x="700.79" y="1517.959" fill="#2C89A0" width="100.35" height="42.615"/>
	<rect x="784.501" y="1168.125" fill="#2C89A0" width="16.912" height="146.931"/>
	<rect x="801.202" y="1168.195" fill="#247083" width="16.912" height="146.932"/>
	<ellipse fill="#247083" cx="802.172" cy="1165.446" rx="52.323" ry="47.091"/>
	<ellipse fill="#2C89A0" cx="798.704" cy="1164.846" rx="40.173" ry="38.591"/>
	<ellipse fill="#247083" cx="805.981" cy="1165.481" rx="38.591" ry="41.754"/>
	<rect x="731.062" y="1604.049" fill="#2C89A0" width="72.395" height="121.676"/>
	<rect x="801.243" y="1604.049" fill="#247083" width="72.396" height="121.676"/>
	<path fill="#247083" d="M1058.864,1367.757L1058.864,1367.757c4.539,0,8.219,4.639,8.219,10.36v75.985
		c0,5.724-3.68,10.36-8.219,10.36l0,0c-4.539,0-8.219-4.637-8.219-10.36v-75.985
		C1050.646,1372.396,1054.325,1367.757,1058.864,1367.757z"/>
	<path fill="#247083" d="M543.793,1367.757L543.793,1367.757c4.539,0,8.219,4.639,8.219,10.36v75.985
		c0,5.724-3.68,10.36-8.219,10.36l0,0c-4.539,0-8.219-4.637-8.219-10.36v-75.985
		C535.574,1372.396,539.254,1367.757,543.793,1367.757z"/>
	<ellipse fill="#333333" fill-opacity="0.6884" cx="920.884" cy="1429.233" rx="21.245" ry="17.177"/>
	<ellipse fill="#333333" fill-opacity="0.6884" cx="800.128" cy="1580.211" rx="69.613" ry="14.465"/>
	<ellipse fill="#333333" fill-opacity="0.6884" cx="689.684" cy="1429.233" rx="21.245" ry="17.177"/>
</g>
<g id="Layer_2">
</g>
</svg>
